<svg version="1.1" id="Layer_1" xmlns="http://www.w3.org/2000/svg" xmlns:xlink="http://www.w3.org/1999/xlink" x="0px" y="0px"
	 width="100%" viewBox="0 0 2048 2048" enable-background="new 0 0 2048 2048" xml:space="preserve">
<path fill="#FEFEFD" opacity="1.000000" stroke="none" 
	d="
M1405.000000,2049.000000 
	C936.666687,2049.000000 468.833344,2049.000000 1.000000,2049.000000 
	C1.000000,1366.333374 1.000000,683.666687 1.000000,1.000000 
	C683.666687,1.000000 1366.333374,1.000000 2049.000000,1.000000 
	C2049.000000,683.666687 2049.000000,1366.333374 2049.000000,2049.000000 
	C1834.500000,2049.000000 1620.000000,2049.000000 1405.000000,2049.000000 
M1686.747070,513.160217 
	C1686.178101,493.447388 1682.086060,474.454132 1674.265991,456.390869 
	C1658.614990,420.239868 1633.179443,393.558502 1597.226318,376.859741 
	C1574.322144,366.221741 1550.368164,362.881531 1525.346680,362.904266 
	C1308.870605,363.100983 1092.394165,362.996826 875.917908,362.994843 
	C756.432190,362.993744 636.946289,363.105347 517.460754,362.959320 
	C491.335724,362.927399 466.555359,368.661835 444.151550,381.546875 
	C392.676575,411.151581 364.510437,456.057892 363.267151,515.660217 
	C362.019653,575.464478 362.937073,635.314270 362.934998,695.144104 
	C362.925354,973.126648 362.956818,1251.109131 362.865051,1529.091675 
	C362.857574,1551.746094 367.007599,1573.328735 375.994354,1594.159912 
	C399.961426,1649.715088 456.388641,1687.040161 516.703064,1687.025513 
	C677.365234,1686.986450 838.027344,1686.999146 998.689514,1686.994629 
	C1176.351929,1686.989624 1354.015381,1687.348999 1531.676147,1686.786133 
	C1592.280884,1686.594116 1638.260010,1659.049683 1668.294434,1606.215332 
	C1679.702393,1586.147095 1685.445923,1564.112305 1686.698853,1540.052124 
	C1686.745117,1538.720337 1686.831177,1537.388672 1686.832031,1536.056885 
	C1686.882568,1458.429321 1686.972534,1380.801636 1686.961548,1303.174072 
	C1686.927612,1062.777954 1686.863281,822.381775 1686.784546,581.985657 
	C1686.777100,559.341003 1686.586182,536.696350 1686.747070,513.160217 
z"/>
<path fill="#25292E" opacity="1.000000" stroke="none" 
	d="
M1686.441895,1540.951660 
	C1685.445923,1564.112305 1679.702393,1586.147095 1668.294434,1606.215332 
	C1638.260010,1659.049683 1592.280884,1686.594116 1531.676147,1686.786133 
	C1354.015381,1687.348999 1176.351929,1686.989624 998.689514,1686.994629 
	C838.027344,1686.999146 677.365234,1686.986450 516.703064,1687.025513 
	C456.388641,1687.040161 399.961426,1649.715088 375.994354,1594.159912 
	C367.007599,1573.328735 362.857574,1551.746094 362.865051,1529.091675 
	C362.956818,1251.109131 362.925354,973.126648 362.934998,695.144104 
	C362.937073,635.314270 362.019653,575.464478 363.267151,515.660217 
	C364.510437,456.057892 392.676575,411.151581 444.151550,381.546875 
	C466.555359,368.661835 491.335724,362.927399 517.460754,362.959320 
	C636.946289,363.105347 756.432190,362.993744 875.917908,362.994843 
	C1092.394165,362.996826 1308.870605,363.100983 1525.346680,362.904266 
	C1550.368164,362.881531 1574.322144,366.221741 1597.226318,376.859741 
	C1633.179443,393.558502 1658.614990,420.239868 1674.265991,456.390869 
	C1682.086060,474.454132 1686.178101,493.447388 1686.267090,513.754517 
	C1685.516968,516.422424 1685.010376,518.496033 1685.010132,520.569702 
	C1684.979370,720.148621 1684.985352,919.727600 1684.992432,1119.306519 
	C1684.997437,1257.912231 1685.001343,1396.517944 1685.074097,1535.123657 
	C1685.075073,1537.066528 1685.966187,1539.009033 1686.441895,1540.951660 
M622.181824,1424.643311 
	C622.813354,1425.398071 623.444885,1426.152954 624.449890,1427.544800 
	C625.667603,1428.036377 626.860474,1428.875610 628.106995,1428.964722 
	C638.600464,1429.716064 649.096802,1430.674683 659.605957,1430.882690 
	C668.995605,1431.068726 678.402466,1430.147705 687.801819,1430.144287 
	C697.007385,1430.140869 706.213928,1430.937500 715.418579,1430.910278 
	C725.708496,1430.879761 736.059265,1430.895264 746.265198,1429.794312 
	C753.694336,1428.992798 761.505920,1427.587402 768.122070,1424.353882 
	C778.550476,1419.257324 786.425903,1410.474976 794.578308,1402.221680 
	C800.657898,1396.066895 802.393494,1388.012329 804.770447,1380.505737 
	C807.894531,1370.639771 809.036926,1360.154907 811.178711,1349.967041 
	C813.380493,1339.493652 815.937439,1329.093140 818.024963,1318.598145 
	C822.826965,1294.456055 827.453125,1270.278931 832.116211,1246.109375 
	C833.242920,1240.269653 834.047424,1234.362305 835.338989,1228.561401 
	C836.912292,1221.495605 839.153809,1214.570068 840.542419,1207.473511 
	C842.305786,1198.461182 843.452332,1189.329834 844.959961,1180.265503 
	C846.232910,1172.611816 847.935791,1165.016479 848.868347,1157.324951 
	C849.346252,1153.383179 847.167603,1151.233154 842.637207,1150.838013 
	C838.022278,1150.435791 835.041260,1152.906860 831.401733,1154.700562 
	C821.193359,1159.731689 810.775452,1164.342041 800.393982,1169.015869 
	C794.446106,1171.693604 788.394287,1174.139526 782.416748,1176.752563 
	C779.457642,1178.046021 776.521118,1179.404541 773.650696,1180.882080 
	C772.037354,1181.712402 770.706726,1183.260254 769.030823,1183.773438 
	C758.474304,1187.006226 748.292908,1190.831421 738.372742,1195.957642 
	C726.890015,1201.891357 714.179993,1204.993896 702.462952,1211.116211 
	C689.663391,1217.804565 674.913452,1220.604248 662.367249,1228.621826 
	C657.522583,1231.717773 654.682129,1235.157837 654.015930,1240.665283 
	C653.381470,1245.910522 652.862854,1251.177490 651.989929,1256.384155 
	C650.381653,1265.976562 648.827637,1275.592651 646.734741,1285.085083 
	C644.676697,1294.418823 641.655273,1303.541992 639.651794,1312.885254 
	C637.685791,1322.053711 636.561340,1331.399414 634.897583,1340.636719 
	C633.175537,1350.197144 631.231506,1359.717407 629.416443,1369.261230 
	C626.297241,1385.661743 623.116150,1402.051636 620.230408,1418.493286 
	C619.936584,1420.167236 621.480713,1422.163818 622.181824,1424.643311 
M701.207764,1034.937378 
	C705.053040,1037.367188 708.517883,1035.695923 711.765747,1033.708008 
	C716.422058,1030.857910 720.877808,1027.682739 725.486755,1024.752441 
	C738.032837,1016.775818 750.577637,1008.796143 763.191101,1000.926819 
	C779.201294,990.938293 795.262024,981.030396 811.343201,971.156494 
	C814.007751,969.520325 817.069885,968.499023 819.629822,966.732239 
	C824.763000,963.189453 829.394409,958.853210 834.731995,955.685425 
	C852.029846,945.419128 869.627991,935.658813 886.928894,925.397400 
	C890.511414,923.272522 894.932678,920.399170 896.168335,916.886108 
	C899.858337,906.395508 902.445312,895.480652 904.900208,884.604492 
	C906.533508,877.368225 906.939819,869.863220 908.360291,862.569031 
	C911.077026,848.619080 913.923218,834.687378 917.091980,820.834229 
	C920.355225,806.567932 922.704285,791.492249 936.169983,782.541260 
	C944.484558,777.014465 953.310608,771.922119 962.546814,768.239319 
	C968.302429,765.944519 975.248718,766.116638 981.665161,766.084595 
	C1017.770691,765.904053 1053.877808,765.927063 1089.983887,766.035889 
	C1102.528076,766.073730 1115.070923,766.763245 1127.614502,766.773376 
	C1139.082764,766.782715 1150.550415,766.117493 1162.020386,766.033752 
	C1180.442139,765.899231 1198.865723,765.999084 1217.288452,765.999695 
	C1235.627686,766.000305 1253.970947,765.757446 1272.305054,766.064392 
	C1293.990234,766.427429 1312.759644,758.258972 1329.456909,745.669617 
	C1346.380615,732.909607 1355.911377,714.781921 1360.959595,694.408264 
	C1362.217529,689.331726 1361.655640,683.823853 1362.706665,678.672668 
	C1365.748657,663.762329 1369.213623,648.938721 1372.457397,634.069031 
	C1374.307739,625.586609 1369.877563,620.002563 1361.370728,620.001831 
	C1305.624634,619.997131 1249.878662,620.000610 1194.132568,620.001160 
	C1181.214600,620.001282 1168.296753,620.000427 1155.378784,620.000305 
	C1133.288818,620.000122 1111.198730,620.000061 1089.108765,620.000000 
	C1024.949219,619.999817 960.788940,619.847412 896.630615,620.136292 
	C884.756226,620.189758 872.809326,621.482361 861.048828,623.231384 
	C853.497559,624.354492 845.549683,626.142212 838.979492,629.791931 
	C827.603760,636.111145 817.151611,644.095398 806.326843,651.403076 
	C794.860168,659.144226 786.350464,669.726074 779.084473,681.196899 
	C773.987610,689.243164 769.637878,697.848511 765.779297,706.569092 
	C761.992432,715.127441 758.482117,723.956604 756.232056,733.010315 
	C753.148132,745.419128 751.574402,758.194763 748.977783,770.735352 
	C745.555969,787.261902 741.698486,803.697632 738.164307,820.201599 
	C735.671448,831.842896 733.277954,843.508789 731.070862,855.207153 
	C728.653381,868.020569 726.640320,880.910583 724.191833,893.717651 
	C721.991516,905.226624 719.257202,916.634033 717.088440,928.148315 
	C714.279541,943.061218 712.071045,958.090698 709.079956,972.964539 
	C707.072021,982.949402 703.870239,992.690552 701.736511,1002.655090 
	C700.078674,1010.396912 698.984253,1018.289978 698.217224,1026.171997 
	C698.007263,1028.330200 699.878418,1030.690918 700.961060,1033.572266 
	C700.988586,1033.782471 701.016052,1033.992676 701.207764,1034.937378 
M730.166687,1074.736206 
	C717.352234,1083.235107 704.537781,1091.734009 691.075684,1100.397949 
	C690.384460,1100.933594 689.693176,1101.469360 688.378357,1102.077881 
	C687.574951,1102.714233 686.771545,1103.350586 685.300659,1104.146851 
	C677.941833,1108.996094 670.562317,1113.814331 663.227844,1118.700073 
	C636.238892,1136.677979 609.234131,1154.632324 582.294678,1172.684204 
	C558.827148,1188.409668 535.439819,1204.254639 511.393219,1220.160645 
	C510.773956,1220.712036 510.154694,1221.263428 508.941803,1221.962402 
	C507.981720,1222.690796 507.021606,1223.419189 505.383728,1224.252930 
	C487.490692,1236.300537 469.597626,1248.348145 451.704590,1260.395752 
	C459.379639,1258.606934 466.600281,1255.832886 473.833618,1253.092163 
	C488.886658,1247.388550 503.946411,1241.702759 519.765564,1236.006592 
	C530.429199,1232.212158 541.238342,1228.779907 551.732727,1224.564209 
	C615.814941,1198.821533 680.240540,1173.871338 743.725403,1146.724609 
	C792.042847,1126.063477 839.118591,1102.501709 886.779785,1080.301270 
	C911.209229,1068.922119 935.686157,1057.643677 960.203735,1046.456055 
	C964.359741,1044.559692 968.830811,1043.353760 973.638367,1041.658936 
	C974.224854,1044.204956 974.972534,1045.942139 974.964172,1047.675659 
	C974.928040,1055.158569 975.371582,1062.735596 974.370605,1070.105957 
	C970.314148,1099.973022 965.663635,1129.759033 961.481140,1159.609741 
	C958.744385,1179.142334 957.132568,1198.657227 962.801819,1218.100586 
	C969.028381,1239.455566 981.820007,1253.928223 1004.325562,1257.651245 
	C1017.939087,1259.903442 1031.976074,1259.446045 1044.550659,1253.411865 
	C1060.855957,1245.587402 1076.909912,1237.010864 1092.236084,1227.421753 
	C1124.779541,1207.060425 1154.083618,1182.288208 1183.377075,1157.629761 
	C1210.500977,1134.797729 1237.117310,1111.359863 1263.832520,1088.046021 
	C1289.034668,1066.052734 1314.065796,1043.863770 1339.195923,1021.787964 
	C1342.381226,1018.989868 1345.710815,1016.355957 1349.250732,1013.415588 
	C1368.119873,1034.964844 1386.584839,1056.052612 1405.661865,1077.839355 
	C1431.166382,995.341736 1456.353638,913.870544 1481.753784,831.710632 
	C1395.912720,844.571716 1311.518188,857.216064 1225.918579,870.040955 
	C1245.122192,892.096863 1263.633423,913.357605 1282.475220,934.997925 
	C1213.759521,994.379089 1145.684814,1054.414551 1074.944702,1113.022095 
	C1074.944702,1110.722534 1074.869507,1109.908569 1074.955688,1109.112183 
	C1077.784668,1082.962769 1081.031128,1056.850708 1083.351807,1030.656494 
	C1085.417480,1007.337708 1082.990234,984.312439 1073.986450,962.509705 
	C1067.792236,947.510437 1057.040161,936.758728 1041.706787,930.291748 
	C1024.871704,923.191528 1007.891602,923.449463 990.793213,927.704346 
	C966.924072,933.644165 944.698608,943.954895 923.167114,955.573059 
	C905.763428,964.963806 888.817627,975.221619 871.850281,985.397461 
	C853.461121,996.426086 835.282166,1007.805115 816.372314,1019.094666 
	C815.528687,1019.707092 814.685059,1020.319519 813.268250,1021.005615 
	C812.850220,1021.388550 812.432190,1021.771545 811.344727,1022.198242 
	C809.781006,1023.417725 808.217285,1024.637207 806.243958,1025.886963 
	C806.243958,1025.886963 806.020508,1026.231567 805.336670,1026.282715 
	C792.813477,1034.333130 780.290283,1042.383667 767.132385,1050.632568 
	C766.427673,1051.163574 765.722961,1051.694458 764.360596,1052.252808 
	C763.191772,1053.148193 762.022949,1054.043579 760.204773,1055.132568 
	C757.460083,1057.064087 754.715393,1058.995483 751.342712,1060.995850 
	C750.546021,1061.657349 749.749329,1062.318970 748.261414,1063.062134 
	C742.459106,1066.881836 736.656860,1070.701416 730.166687,1074.736206 
M1126.786621,987.722473 
	C1127.217651,989.662231 1127.604614,991.613037 1128.087524,993.539856 
	C1130.200928,1001.974182 1134.803589,1003.829468 1141.451782,997.848206 
	C1151.151489,989.121277 1163.916748,983.968994 1171.135864,972.378906 
	C1171.561035,971.696289 1172.295044,971.191345 1172.929565,970.656067 
	C1181.848267,963.132629 1190.875366,955.732300 1199.607300,947.998352 
	C1201.207764,946.580933 1202.979126,943.017822 1202.289429,941.840576 
	C1200.861328,939.402710 1198.080078,936.950256 1195.399780,936.251709 
	C1191.820435,935.318909 1187.807617,936.004700 1183.982178,936.069458 
	C1166.720337,936.361755 1149.441650,937.217285 1132.207886,936.662476 
	C1127.029419,936.495728 1122.896362,937.999023 1118.498169,939.462646 
	C1114.513794,940.788452 1113.920410,944.412292 1115.557129,947.645569 
	C1121.833862,960.045471 1123.853638,973.564880 1126.786621,987.722473 
z"/>
<path fill="#0E1012" opacity="1.000000" stroke="none" 
	d="
M1686.570312,1540.501953 
	C1685.966187,1539.009033 1685.075073,1537.066528 1685.074097,1535.123657 
	C1685.001343,1396.517944 1684.997437,1257.912231 1684.992432,1119.306519 
	C1684.985352,919.727600 1684.979370,720.148621 1685.010132,520.569702 
	C1685.010376,518.496033 1685.516968,516.422424 1686.133911,514.200256 
	C1686.586182,536.696350 1686.777100,559.341003 1686.784546,581.985657 
	C1686.863281,822.381775 1686.927612,1062.777954 1686.961548,1303.174072 
	C1686.972534,1380.801636 1686.882568,1458.429321 1686.832031,1536.056885 
	C1686.831177,1537.388672 1686.745117,1538.720337 1686.570312,1540.501953 
z"/>
<path fill="#FCFCFB" opacity="1.000000" stroke="none" 
	d="
M689.001892,1102.005127 
	C689.693176,1101.469360 690.384460,1100.933594 691.555786,1100.678101 
	C695.496216,1100.759521 698.956604,1100.560669 702.805786,1100.339600 
	C701.989868,1099.004517 701.252563,1097.798096 700.417236,1096.431274 
	C703.214539,1096.154175 706.224426,1096.754150 707.741394,1095.519653 
	C710.929993,1092.924683 713.996643,1091.952759 717.908752,1092.928345 
	C718.734131,1093.134277 719.742859,1092.605103 720.851501,1092.376587 
	C720.726074,1090.553711 720.619202,1089.000366 720.498657,1087.248657 
	C723.094971,1086.852051 725.427124,1086.495850 726.541199,1086.325684 
	C727.460327,1083.649292 728.094421,1081.704468 728.797119,1079.784912 
	C729.444641,1078.016357 730.165833,1076.274658 730.854553,1074.521118 
	C736.656860,1070.701416 742.459106,1066.881836 748.969910,1063.040894 
	C750.442505,1062.322144 751.206604,1061.624512 751.970703,1060.926880 
	C754.715393,1058.995483 757.460083,1057.064087 760.876221,1055.041260 
	C762.704590,1054.041748 763.861450,1053.133667 765.018311,1052.225464 
	C765.722961,1051.694458 766.427673,1051.163574 767.594971,1050.846558 
	C769.776367,1051.676758 771.495239,1052.292969 773.226379,1052.913574 
	C774.881409,1047.498291 778.173401,1045.036011 782.622192,1045.324829 
	C784.254700,1043.690674 786.451721,1041.255005 786.601929,1041.375244 
	C792.134460,1045.805786 794.603333,1037.083984 799.385864,1038.359131 
	C799.726013,1038.449951 801.658020,1035.482178 801.286072,1034.834839 
	C799.550293,1031.812744 802.247681,1031.197510 803.497437,1029.730103 
	C804.426636,1028.639038 805.185730,1027.403076 806.020508,1026.231567 
	C806.020508,1026.231567 806.243958,1025.886963 806.830383,1025.921509 
	C808.949280,1024.688843 810.481689,1023.421692 812.014160,1022.154541 
	C812.432190,1021.771545 812.850220,1021.388550 813.919067,1020.998230 
	C815.383789,1020.337708 816.197693,1019.684570 817.011597,1019.031372 
	C835.282166,1007.805115 853.461121,996.426086 871.850281,985.397461 
	C888.817627,975.221619 905.763428,964.963806 923.167114,955.573059 
	C944.698608,943.954895 966.924072,933.644165 990.793213,927.704346 
	C1007.891602,923.449463 1024.871704,923.191528 1041.706787,930.291748 
	C1057.040161,936.758728 1067.792236,947.510437 1073.986450,962.509705 
	C1082.990234,984.312439 1085.417480,1007.337708 1083.351807,1030.656494 
	C1081.031128,1056.850708 1077.784668,1082.962769 1074.955688,1109.112183 
	C1074.869507,1109.908569 1074.944702,1110.722534 1074.944702,1113.022095 
	C1145.684814,1054.414551 1213.759521,994.379089 1282.475220,934.997925 
	C1263.633423,913.357605 1245.122192,892.096863 1225.918579,870.040955 
	C1311.518188,857.216064 1395.912720,844.571716 1481.753784,831.710632 
	C1456.353638,913.870544 1431.166382,995.341736 1405.661865,1077.839355 
	C1386.584839,1056.052612 1368.119873,1034.964844 1349.250732,1013.415588 
	C1345.710815,1016.355957 1342.381226,1018.989868 1339.195923,1021.787964 
	C1314.065796,1043.863770 1289.034668,1066.052734 1263.832520,1088.046021 
	C1237.117310,1111.359863 1210.500977,1134.797729 1183.377075,1157.629761 
	C1154.083618,1182.288208 1124.779541,1207.060425 1092.236084,1227.421753 
	C1076.909912,1237.010864 1060.855957,1245.587402 1044.550659,1253.411865 
	C1031.976074,1259.446045 1017.939087,1259.903442 1004.325562,1257.651245 
	C981.820007,1253.928223 969.028381,1239.455566 962.801819,1218.100586 
	C957.132568,1198.657227 958.744385,1179.142334 961.481140,1159.609741 
	C965.663635,1129.759033 970.314148,1099.973022 974.370605,1070.105957 
	C975.371582,1062.735596 974.928040,1055.158569 974.964172,1047.675659 
	C974.972534,1045.942139 974.224854,1044.204956 973.638367,1041.658936 
	C968.830811,1043.353760 964.359741,1044.559692 960.203735,1046.456055 
	C935.686157,1057.643677 911.209229,1068.922119 886.779785,1080.301270 
	C839.118591,1102.501709 792.042847,1126.063477 743.725403,1146.724609 
	C680.240540,1173.871338 615.814941,1198.821533 551.732727,1224.564209 
	C541.238342,1228.779907 530.429199,1232.212158 519.187744,1235.757080 
	C514.592468,1234.555908 510.522034,1233.766846 506.610596,1232.490356 
	C505.970795,1232.281616 506.031982,1229.924561 505.516479,1227.248535 
	C508.525421,1228.947754 509.968445,1229.762573 511.411469,1230.577515 
	C511.636627,1230.284912 511.861786,1229.992310 512.086914,1229.699829 
	C510.078461,1227.849121 508.070007,1225.998413 506.061523,1224.147705 
	C507.021606,1223.419189 507.981720,1222.690796 509.596924,1221.917725 
	C510.840424,1221.264404 511.428772,1220.655640 512.017090,1220.046875 
	C535.439819,1204.254639 558.827148,1188.409668 582.294678,1172.684204 
	C609.234131,1154.632324 636.238892,1136.677979 663.227844,1118.700073 
	C670.562317,1113.814331 677.941833,1108.996094 685.990967,1104.079346 
	C687.454773,1103.342896 688.228333,1102.673950 689.001892,1102.005127 
M733.514648,1076.414917 
	C733.514648,1076.414917 733.579102,1076.523315 733.514648,1076.414917 
z"/>
<path fill="#4D1C20" opacity="1.000000" stroke="none" 
	d="
M700.794495,1032.958618 
	C699.878418,1030.690918 698.007263,1028.330200 698.217224,1026.171997 
	C698.984253,1018.289978 700.078674,1010.396912 701.736511,1002.655090 
	C703.870239,992.690552 707.072021,982.949402 709.079956,972.964539 
	C712.071045,958.090698 714.279541,943.061218 717.088440,928.148315 
	C719.257202,916.634033 721.991516,905.226624 724.191833,893.717651 
	C726.640320,880.910583 728.653381,868.020569 731.070862,855.207153 
	C733.277954,843.508789 735.671448,831.842896 738.164307,820.201599 
	C741.698486,803.697632 745.555969,787.261902 748.977783,770.735352 
	C751.574402,758.194763 753.148132,745.419128 756.232056,733.010315 
	C758.482117,723.956604 761.992432,715.127441 765.779297,706.569092 
	C769.637878,697.848511 773.987610,689.243164 779.084473,681.196899 
	C786.350464,669.726074 794.860168,659.144226 806.326843,651.403076 
	C817.151611,644.095398 827.603760,636.111145 838.979492,629.791931 
	C845.549683,626.142212 853.497559,624.354492 861.048828,623.231384 
	C872.809326,621.482361 884.756226,620.189758 896.630615,620.136292 
	C960.788940,619.847412 1024.949219,619.999817 1089.108765,620.000000 
	C1111.198730,620.000061 1133.288818,620.000122 1155.378784,620.000305 
	C1168.296753,620.000427 1181.214600,620.001282 1194.132568,620.001160 
	C1249.878662,620.000610 1305.624634,619.997131 1361.370728,620.001831 
	C1369.877563,620.002563 1374.307739,625.586609 1372.457397,634.069031 
	C1369.213623,648.938721 1365.748657,663.762329 1362.706665,678.672668 
	C1361.655640,683.823853 1362.217529,689.331726 1360.959595,694.408264 
	C1355.911377,714.781921 1346.380615,732.909607 1329.456909,745.669617 
	C1312.759644,758.258972 1293.990234,766.427429 1272.305054,766.064392 
	C1253.970947,765.757446 1235.627686,766.000305 1217.288452,765.999695 
	C1198.865723,765.999084 1180.442139,765.899231 1162.020386,766.033752 
	C1150.550415,766.117493 1139.082764,766.782715 1127.614502,766.773376 
	C1115.070923,766.763245 1102.528076,766.073730 1089.983887,766.035889 
	C1053.877808,765.927063 1017.770691,765.904053 981.665161,766.084595 
	C975.248718,766.116638 968.302429,765.944519 962.546814,768.239319 
	C953.310608,771.922119 944.484558,777.014465 936.169983,782.541260 
	C922.704285,791.492249 920.355225,806.567932 917.091980,820.834229 
	C913.923218,834.687378 911.077026,848.619080 908.360291,862.569031 
	C906.939819,869.863220 906.533508,877.368225 904.900208,884.604492 
	C902.445312,895.480652 899.858337,906.395508 896.168335,916.886108 
	C894.932678,920.399170 890.511414,923.272522 886.928894,925.397400 
	C869.627991,935.658813 852.029846,945.419128 834.731995,955.685425 
	C829.394409,958.853210 824.763000,963.189453 819.629822,966.732239 
	C817.069885,968.499023 814.007751,969.520325 811.343201,971.156494 
	C795.262024,981.030396 779.201294,990.938293 763.191101,1000.926819 
	C750.577637,1008.796143 738.032837,1016.775818 725.486755,1024.752441 
	C720.877808,1027.682739 716.422058,1030.857910 711.765747,1033.708008 
	C708.517883,1035.695923 705.053040,1037.367188 701.518311,1034.505371 
	C709.201111,1032.923950 714.172974,1027.947388 719.443359,1023.132385 
	C719.632874,1023.120056 720.001770,1023.029846 720.360718,1023.015503 
	C734.784119,1014.236023 748.850647,1005.474182 762.912415,996.704712 
	C775.849792,988.636475 788.840393,980.651489 801.686951,972.441162 
	C806.661438,969.261963 811.304626,965.564331 816.443359,962.046143 
	C819.951294,960.236633 823.243103,958.677734 826.247803,956.685669 
	C830.724976,953.717285 834.999512,950.443237 839.716736,947.249512 
	C847.164124,943.266296 854.257446,939.336975 861.345520,935.398254 
	C870.887756,930.095764 880.539062,924.973755 889.883484,919.342651 
	C892.117126,917.996582 894.258057,915.157593 894.834778,912.637573 
	C897.090271,902.782349 898.584839,892.756226 900.576294,882.836609 
	C905.050171,860.551758 909.449524,838.248352 914.292175,816.042603 
	C916.512756,805.860168 918.980957,795.639893 925.471863,786.988464 
	C937.856384,770.481934 954.414795,762.710754 974.914551,762.875916 
	C985.202209,762.958801 995.491089,762.898071 1005.779419,762.899353 
	C1092.610718,762.909973 1179.442139,763.022522 1266.272705,762.777039 
	C1275.298828,762.751526 1284.694702,761.831482 1293.274536,759.214172 
	C1324.674194,749.635681 1347.549316,730.787964 1355.064941,697.289795 
	C1360.039673,675.116516 1364.359253,652.794312 1368.805664,630.505554 
	C1370.194336,623.544739 1369.382446,622.887146 1361.598877,622.887207 
	C1219.273315,622.887817 1076.947510,622.779297 934.622314,623.013428 
	C912.225647,623.050293 889.793457,621.365173 867.407654,625.665222 
	C850.183960,628.973633 835.031555,636.408264 820.446106,645.273743 
	C808.085754,652.786865 797.041077,662.163635 788.510254,674.045898 
	C783.200623,681.441467 777.622925,688.781677 773.416504,696.802795 
	C765.450867,711.992432 760.706360,728.457275 757.264954,745.205872 
	C752.595276,767.932373 748.420898,790.760254 743.973267,813.532776 
	C738.313477,842.511536 732.551025,871.470215 726.915039,900.453552 
	C723.844849,916.241699 720.977234,932.069092 717.959045,947.867493 
	C714.568665,965.613892 711.193359,983.363953 707.652832,1001.080688 
	C705.523132,1011.737915 703.090820,1022.334656 700.794495,1032.958618 
z"/>
<path fill="#AD4347" opacity="1.000000" stroke="none" 
	d="
M700.877808,1033.265381 
	C703.090820,1022.334656 705.523132,1011.737915 707.652832,1001.080688 
	C711.193359,983.363953 714.568665,965.613892 717.959045,947.867493 
	C720.977234,932.069092 723.844849,916.241699 726.915039,900.453552 
	C732.551025,871.470215 738.313477,842.511536 743.973267,813.532776 
	C748.420898,790.760254 752.595276,767.932373 757.264954,745.205872 
	C760.706360,728.457275 765.450867,711.992432 773.416504,696.802795 
	C777.622925,688.781677 783.200623,681.441467 788.510254,674.045898 
	C797.041077,662.163635 808.085754,652.786865 820.446106,645.273743 
	C835.031555,636.408264 850.183960,628.973633 867.407654,625.665222 
	C889.793457,621.365173 912.225647,623.050293 934.622314,623.013428 
	C1076.947510,622.779297 1219.273315,622.887817 1361.598877,622.887207 
	C1369.382446,622.887146 1370.194336,623.544739 1368.805664,630.505554 
	C1364.359253,652.794312 1360.039673,675.116516 1355.064941,697.289795 
	C1347.549316,730.787964 1324.674194,749.635681 1293.274536,759.214172 
	C1284.694702,761.831482 1275.298828,762.751526 1266.272705,762.777039 
	C1179.442139,763.022522 1092.610718,762.909973 1005.779419,762.899353 
	C995.491089,762.898071 985.202209,762.958801 974.914551,762.875916 
	C954.414795,762.710754 937.856384,770.481934 925.471863,786.988464 
	C918.980957,795.639893 916.512756,805.860168 914.292175,816.042603 
	C909.449524,838.248352 905.050171,860.551758 900.576294,882.836609 
	C898.584839,892.756226 897.090271,902.782349 894.834778,912.637573 
	C894.258057,915.157593 892.117126,917.996582 889.883484,919.342651 
	C880.539062,924.973755 870.887756,930.095764 861.345520,935.398254 
	C854.257446,939.336975 847.164124,943.266296 839.622559,947.174194 
	C839.171997,947.148682 838.990234,946.990234 839.040771,946.663574 
	C839.731934,945.233521 840.372498,944.130188 841.007812,943.014648 
	C841.002441,943.002441 841.026184,943.014832 841.418091,943.015686 
	C845.344910,941.687927 849.188904,940.867493 852.359131,938.939331 
	C863.693481,932.045959 874.545837,924.323364 886.109802,917.861389 
	C891.105957,915.069397 892.913147,911.129150 893.803711,906.501892 
	C895.831970,895.962219 897.105164,885.278992 899.039062,874.718994 
	C901.243713,862.680725 903.723083,850.689209 906.292542,838.722412 
	C908.060242,830.489441 910.178467,822.331482 912.150574,814.142456 
	C914.584412,804.035645 916.686462,793.870056 923.205872,785.247742 
	C936.128113,768.157471 953.249817,759.972595 974.561218,759.990295 
	C1032.291626,760.038330 1090.021973,760.009155 1147.752441,760.009583 
	C1189.736816,760.009949 1231.722290,760.163635 1273.704468,759.856140 
	C1280.717773,759.804810 1287.964722,758.543396 1294.670044,756.451294 
	C1308.625366,752.097229 1320.769287,744.396790 1331.354492,734.197327 
	C1342.022461,723.918030 1349.750854,712.120056 1352.155884,697.221924 
	C1353.234497,690.540527 1354.382812,683.859924 1355.825073,677.250000 
	C1359.023315,662.591736 1362.600586,648.013245 1365.553711,633.307922 
	C1365.979736,631.186951 1364.450073,627.612732 1362.670898,626.387085 
	C1360.607422,624.965576 1357.263428,625.039368 1354.485229,625.083923 
	C1344.363281,625.246338 1334.245728,625.942627 1324.126221,625.948669 
	C1211.668091,626.015442 1099.209961,626.008484 986.751831,625.948364 
	C979.519897,625.944519 972.286377,625.038330 965.056824,625.082581 
	C953.351868,625.154297 941.651367,625.761414 929.945801,625.961975 
	C920.951843,626.116150 911.944336,625.742004 902.958618,626.055603 
	C891.538391,626.454224 880.128723,627.234802 868.728149,628.042175 
	C866.782227,628.179993 864.904297,629.276489 862.745483,629.931763 
	C862.495972,629.933350 861.997131,629.945251 861.746948,629.677490 
	C860.374939,629.419617 859.071594,629.054749 858.158997,629.496704 
	C847.476013,634.670471 836.736267,639.748108 826.257629,645.314453 
	C820.472961,648.387207 814.568176,651.686951 809.756714,656.034485 
	C802.173950,662.886169 795.108215,670.405701 788.531799,678.237244 
	C784.934265,682.521240 782.790649,688.026062 779.994019,692.987244 
	C779.996704,692.994080 779.977966,692.990601 779.632507,693.042908 
	C775.740479,700.286072 771.500122,707.228821 768.817749,714.728760 
	C765.221191,724.784790 762.382751,735.170837 760.027588,745.597961 
	C756.641052,760.591064 753.903320,775.733582 751.034485,790.840088 
	C747.586670,808.995422 744.463257,827.213623 740.881775,845.341858 
	C737.396484,862.982788 733.307251,880.504700 729.847229,898.150208 
	C724.726624,924.264709 720.036377,950.463501 714.940979,976.583069 
	C712.762451,987.751038 709.809814,998.767944 707.630127,1009.935730 
	C706.509277,1015.677856 706.313477,1021.600647 705.541260,1028.948608 
	C708.728638,1027.703613 710.452393,1027.085449 712.130615,1026.361694 
	C714.522522,1025.329956 716.881042,1024.220703 719.253906,1023.144653 
	C714.172974,1027.947388 709.201111,1032.923950 701.436218,1034.138062 
	C701.016052,1033.992676 700.988586,1033.782471 700.877808,1033.265381 
z"/>
<path fill="#B33F44" opacity="1.000000" stroke="none" 
	d="
M624.076416,1426.907715 
	C623.444885,1426.152954 622.813354,1425.398071 622.434082,1424.061157 
	C626.199585,1405.592529 629.686707,1387.700684 633.232483,1369.820679 
	C638.067688,1345.438477 643.037231,1321.082520 647.778931,1296.682129 
	C651.350952,1278.300903 654.848999,1259.900269 657.970520,1241.439087 
	C659.015259,1235.260376 662.135437,1231.925171 667.797241,1229.788452 
	C679.905823,1225.218994 691.938293,1220.424194 703.854553,1215.374023 
	C723.799133,1206.921631 743.684814,1198.324463 763.491577,1189.554077 
	C787.105042,1179.098022 810.592773,1168.358521 834.178772,1157.839844 
	C837.772522,1156.237061 841.602295,1155.163574 846.266785,1153.510864 
	C843.897827,1166.116333 841.894836,1177.178955 839.731750,1188.210205 
	C832.713013,1224.004150 825.652039,1259.789795 818.575500,1295.572266 
	C813.395630,1321.764771 808.587830,1348.041260 802.802429,1374.100098 
	C799.217102,1390.249390 790.838196,1403.954712 777.119385,1413.843628 
	C763.804321,1423.441772 748.510925,1426.730957 732.506409,1426.825439 
	C696.364197,1427.039062 660.219849,1426.902100 624.076416,1426.907715 
M789.189148,1182.800537 
	C782.398193,1185.838867 775.666199,1189.018066 768.803345,1191.884277 
	C756.773865,1196.908569 744.604065,1201.599243 732.606567,1206.696777 
	C722.675720,1210.916260 712.928650,1215.566284 703.056152,1219.926147 
	C700.198608,1221.188110 697.157288,1222.027222 694.255249,1223.196533 
	C685.398560,1226.765015 676.445496,1230.136475 667.807190,1234.177490 
	C665.371582,1235.316895 662.725586,1238.238647 662.170654,1240.778564 
	C659.809326,1251.586304 658.278625,1262.572510 656.289307,1273.465088 
	C653.912415,1286.480591 651.299500,1299.453003 648.941284,1312.471680 
	C647.674866,1319.463135 647.077820,1326.589355 645.554077,1333.517334 
	C643.318604,1343.681519 640.170654,1353.648804 638.046265,1363.832520 
	C634.534973,1380.664673 631.561035,1397.608521 628.295959,1414.492798 
	C627.043274,1420.970703 628.616638,1423.000610 635.298401,1423.004150 
	C662.629883,1423.018555 689.970337,1422.601807 717.289062,1423.192993 
	C730.511902,1423.479126 743.425781,1422.160034 755.870361,1418.379028 
	C777.331543,1411.858643 790.542358,1396.635864 796.860718,1375.462402 
	C799.742920,1365.803955 801.982788,1355.920654 803.931824,1346.024658 
	C806.934875,1330.777954 809.219482,1315.389771 812.215698,1300.141479 
	C814.925720,1286.349609 818.443420,1272.715576 821.113037,1258.916748 
	C823.277405,1247.729858 824.307129,1236.319214 826.583130,1225.159302 
	C828.852112,1214.034180 832.301392,1203.153931 834.755432,1192.060669 
	C836.824097,1182.709717 838.276978,1173.218628 839.808167,1163.758057 
	C840.003540,1162.551147 839.384521,1160.632446 838.478577,1160.009399 
	C837.744629,1159.504639 835.871826,1160.194214 834.749451,1160.804932 
	C831.715759,1162.455688 828.948792,1164.638306 825.833862,1166.090698 
	C813.899292,1171.655396 801.869629,1177.016235 789.189148,1182.800537 
z"/>
<path fill="#4D1C20" opacity="1.000000" stroke="none" 
	d="
M624.263184,1427.226318 
	C660.219849,1426.902100 696.364197,1427.039062 732.506409,1426.825439 
	C748.510925,1426.730957 763.804321,1423.441772 777.119385,1413.843628 
	C790.838196,1403.954712 799.217102,1390.249390 802.802429,1374.100098 
	C808.587830,1348.041260 813.395630,1321.764771 818.575500,1295.572266 
	C825.652039,1259.789795 832.713013,1224.004150 839.731750,1188.210205 
	C841.894836,1177.178955 843.897827,1166.116333 846.266785,1153.510864 
	C841.602295,1155.163574 837.772522,1156.237061 834.178772,1157.839844 
	C810.592773,1168.358521 787.105042,1179.098022 763.491577,1189.554077 
	C743.684814,1198.324463 723.799133,1206.921631 703.854553,1215.374023 
	C691.938293,1220.424194 679.905823,1225.218994 667.797241,1229.788452 
	C662.135437,1231.925171 659.015259,1235.260376 657.970520,1241.439087 
	C654.848999,1259.900269 651.350952,1278.300903 647.778931,1296.682129 
	C643.037231,1321.082520 638.067688,1345.438477 633.232483,1369.820679 
	C629.686707,1387.700684 626.199585,1405.592529 622.429138,1423.744873 
	C621.480713,1422.163818 619.936584,1420.167236 620.230408,1418.493286 
	C623.116150,1402.051636 626.297241,1385.661743 629.416443,1369.261230 
	C631.231506,1359.717407 633.175537,1350.197144 634.897583,1340.636719 
	C636.561340,1331.399414 637.685791,1322.053711 639.651794,1312.885254 
	C641.655273,1303.541992 644.676697,1294.418823 646.734741,1285.085083 
	C648.827637,1275.592651 650.381653,1265.976562 651.989929,1256.384155 
	C652.862854,1251.177490 653.381470,1245.910522 654.015930,1240.665283 
	C654.682129,1235.157837 657.522583,1231.717773 662.367249,1228.621826 
	C674.913452,1220.604248 689.663391,1217.804565 702.462952,1211.116211 
	C714.179993,1204.993896 726.890015,1201.891357 738.372742,1195.957642 
	C748.292908,1190.831421 758.474304,1187.006226 769.030823,1183.773438 
	C770.706726,1183.260254 772.037354,1181.712402 773.650696,1180.882080 
	C776.521118,1179.404541 779.457642,1178.046021 782.416748,1176.752563 
	C788.394287,1174.139526 794.446106,1171.693604 800.393982,1169.015869 
	C810.775452,1164.342041 821.193359,1159.731689 831.401733,1154.700562 
	C835.041260,1152.906860 838.022278,1150.435791 842.637207,1150.838013 
	C847.167603,1151.233154 849.346252,1153.383179 848.868347,1157.324951 
	C847.935791,1165.016479 846.232910,1172.611816 844.959961,1180.265503 
	C843.452332,1189.329834 842.305786,1198.461182 840.542419,1207.473511 
	C839.153809,1214.570068 836.912292,1221.495605 835.338989,1228.561401 
	C834.047424,1234.362305 833.242920,1240.269653 832.116211,1246.109375 
	C827.453125,1270.278931 822.826965,1294.456055 818.024963,1318.598145 
	C815.937439,1329.093140 813.380493,1339.493652 811.178711,1349.967041 
	C809.036926,1360.154907 807.894531,1370.639771 804.770447,1380.505737 
	C802.393494,1388.012329 800.657898,1396.066895 794.578308,1402.221680 
	C786.425903,1410.474976 778.550476,1419.257324 768.122070,1424.353882 
	C761.505920,1427.587402 753.694336,1428.992798 746.265198,1429.794312 
	C736.059265,1430.895264 725.708496,1430.879761 715.418579,1430.910278 
	C706.213928,1430.937500 697.007385,1430.140869 687.801819,1430.144287 
	C678.402466,1430.147705 668.995605,1431.068726 659.605957,1430.882690 
	C649.096802,1430.674683 638.600464,1429.716064 628.106995,1428.964722 
	C626.860474,1428.875610 625.667603,1428.036377 624.263184,1427.226318 
z"/>
<path fill="#4D1C20" opacity="1.000000" stroke="none" 
	d="
M1126.638428,987.330872 
	C1123.853638,973.564880 1121.833862,960.045471 1115.557129,947.645569 
	C1113.920410,944.412292 1114.513794,940.788452 1118.498169,939.462646 
	C1122.896362,937.999023 1127.029419,936.495728 1132.207886,936.662476 
	C1149.441650,937.217285 1166.720337,936.361755 1183.982178,936.069458 
	C1187.807617,936.004700 1191.820435,935.318909 1195.399780,936.251709 
	C1198.080078,936.950256 1200.861328,939.402710 1202.289429,941.840576 
	C1202.979126,943.017822 1201.207764,946.580933 1199.607300,947.998352 
	C1190.875366,955.732300 1181.848267,963.132629 1172.929565,970.656067 
	C1172.295044,971.191345 1171.561035,971.696289 1171.135864,972.378906 
	C1163.916748,983.968994 1151.151489,989.121277 1141.451782,997.848206 
	C1134.803589,1003.829468 1130.200928,1001.974182 1128.087524,993.539856 
	C1127.604614,991.613037 1127.217651,989.662231 1126.638428,987.330872 
M1165.274170,972.781738 
	C1177.010132,962.742065 1188.745972,952.702332 1200.481812,942.662659 
	C1200.200439,942.050659 1199.919067,941.438660 1199.637695,940.826660 
	C1197.980957,940.574097 1196.324463,940.104675 1194.667358,940.101929 
	C1172.168701,940.064819 1149.669922,940.072693 1127.171387,940.138733 
	C1125.217041,940.144409 1122.982300,940.153564 1121.405640,941.069702 
	C1120.282349,941.722412 1119.085815,944.376709 1119.557129,945.325745 
	C1126.171631,958.645203 1127.757935,973.252380 1130.645386,987.514221 
	C1131.313110,990.812195 1131.333740,994.241211 1131.751709,998.661987 
	C1144.606445,991.313721 1154.696533,982.305115 1165.274170,972.781738 
z"/>
<path fill="#EEEEED" opacity="1.000000" stroke="none" 
	d="
M505.722656,1224.200317 
	C508.070007,1225.998413 510.078461,1227.849121 512.086914,1229.699829 
	C511.861786,1229.992310 511.636627,1230.284912 511.411469,1230.577515 
	C509.968445,1229.762573 508.525421,1228.947754 505.516479,1227.248535 
	C506.031982,1229.924561 505.970795,1232.281616 506.610596,1232.490356 
	C510.522034,1233.766846 514.592468,1234.555908 518.806641,1235.758667 
	C503.946411,1241.702759 488.886658,1247.388550 473.833618,1253.092163 
	C466.600281,1255.832886 459.379639,1258.606934 451.704590,1260.395752 
	C469.597626,1248.348145 487.490692,1236.300537 505.722656,1224.200317 
z"/>
<path fill="#EEEEED" opacity="1.000000" stroke="none" 
	d="
M730.510620,1074.628662 
	C730.165833,1076.274658 729.444641,1078.016357 728.797119,1079.784912 
	C728.094421,1081.704468 727.460327,1083.649292 726.541199,1086.325684 
	C725.427124,1086.495850 723.094971,1086.852051 720.498657,1087.248657 
	C720.619202,1089.000366 720.726074,1090.553711 720.851501,1092.376587 
	C719.742859,1092.605103 718.734131,1093.134277 717.908752,1092.928345 
	C713.996643,1091.952759 710.929993,1092.924683 707.741394,1095.519653 
	C706.224426,1096.754150 703.214539,1096.154175 700.417236,1096.431274 
	C701.252563,1097.798096 701.989868,1099.004517 702.805786,1100.339600 
	C698.956604,1100.560669 695.496216,1100.759521 691.879578,1100.595703 
	C704.537781,1091.734009 717.352234,1083.235107 730.510620,1074.628662 
z"/>
<path fill="#EEEEED" opacity="1.000000" stroke="none" 
	d="
M805.678589,1026.257080 
	C805.185730,1027.403076 804.426636,1028.639038 803.497437,1029.730103 
	C802.247681,1031.197510 799.550293,1031.812744 801.286072,1034.834839 
	C801.658020,1035.482178 799.726013,1038.449951 799.385864,1038.359131 
	C794.603333,1037.083984 792.134460,1045.805786 786.601929,1041.375244 
	C786.451721,1041.255005 784.254700,1043.690674 782.622192,1045.324829 
	C778.173401,1045.036011 774.881409,1047.498291 773.226379,1052.913574 
	C771.495239,1052.292969 769.776367,1051.676758 767.912292,1050.747314 
	C780.290283,1042.383667 792.813477,1034.333130 805.678589,1026.257080 
z"/>
<path fill="#EEEEED" opacity="1.000000" stroke="none" 
	d="
M811.679443,1022.176392 
	C810.481689,1023.421692 808.949280,1024.688843 807.035156,1025.906494 
	C808.217285,1024.637207 809.781006,1023.417725 811.679443,1022.176392 
z"/>
<path fill="#EEEEED" opacity="1.000000" stroke="none" 
	d="
M764.689453,1052.239136 
	C763.861450,1053.133667 762.704590,1054.041748 761.200928,1054.944336 
	C762.022949,1054.043579 763.191772,1053.148193 764.689453,1052.239136 
z"/>
<path fill="#EEEEED" opacity="1.000000" stroke="none" 
	d="
M688.690063,1102.041504 
	C688.228333,1102.673950 687.454773,1103.342896 686.324707,1103.999512 
	C686.771545,1103.350586 687.574951,1102.714233 688.690063,1102.041504 
z"/>
<path fill="#EEEEED" opacity="1.000000" stroke="none" 
	d="
M751.656738,1060.961426 
	C751.206604,1061.624512 750.442505,1062.322144 749.315552,1063.000000 
	C749.749329,1062.318970 750.546021,1061.657349 751.656738,1060.961426 
z"/>
<path fill="#EEEEED" opacity="1.000000" stroke="none" 
	d="
M816.692017,1019.063049 
	C816.197693,1019.684570 815.383789,1020.337708 814.205688,1020.961426 
	C814.685059,1020.319519 815.528687,1019.707092 816.692017,1019.063049 
z"/>
<path fill="#EEEEED" opacity="1.000000" stroke="none" 
	d="
M511.705200,1220.103760 
	C511.428772,1220.655640 510.840424,1221.264404 509.893738,1221.843872 
	C510.154694,1221.263428 510.773956,1220.712036 511.705200,1220.103760 
z"/>
<path fill="#EEEEED" opacity="1.000000" stroke="none" 
	d="
M733.546875,1076.469116 
	C733.579102,1076.523315 733.514648,1076.414917 733.546875,1076.469116 
z"/>
<path fill="#C7383D" opacity="1.000000" stroke="none" 
	d="
M719.443359,1023.132324 
	C716.881042,1024.220703 714.522522,1025.329956 712.130615,1026.361694 
	C710.452393,1027.085449 708.728638,1027.703613 705.541260,1028.948608 
	C706.313477,1021.600647 706.509277,1015.677856 707.630127,1009.935730 
	C709.809814,998.767944 712.762451,987.751038 714.940979,976.583069 
	C720.036377,950.463501 724.726624,924.264709 729.847229,898.150208 
	C733.307251,880.504700 737.396484,862.982788 740.881775,845.341858 
	C744.463257,827.213623 747.586670,808.995422 751.034485,790.840088 
	C753.903320,775.733582 756.641052,760.591064 760.027588,745.597961 
	C762.382751,735.170837 765.221191,724.784790 768.817749,714.728760 
	C771.500122,707.228821 775.740479,700.286072 779.604248,693.416870 
	C777.864197,700.003662 776.558594,706.653564 773.590576,712.452515 
	C767.704712,723.952271 765.162659,736.486206 761.918457,748.683472 
	C757.609192,764.884644 755.144592,781.579895 751.980042,798.080627 
	C750.404114,806.298340 749.136169,814.575378 747.548401,822.790710 
	C745.110413,835.405518 742.406372,847.969543 740.031677,860.595825 
	C738.660461,867.886536 738.094971,875.341858 736.488708,882.572449 
	C733.951233,893.995667 730.326599,905.192139 728.105896,916.667236 
	C725.187561,931.746643 723.536682,947.069519 720.692383,962.165527 
	C717.661316,978.251953 713.546875,994.137268 710.656860,1010.245178 
	C709.972351,1014.060547 707.527405,1018.959961 711.889526,1023.100281 
	C713.431458,1022.158020 714.799866,1021.273560 716.212708,1020.466675 
	C723.481995,1016.314697 730.762695,1012.182739 737.989746,1008.401489 
	C734.950134,1010.883850 731.859497,1012.882385 728.997375,1015.167236 
	C725.888000,1017.649231 722.991150,1020.397522 720.001709,1023.029785 
	C720.001770,1023.029846 719.632874,1023.120056 719.443359,1023.132324 
z"/>
<path fill="#AD4347" opacity="1.000000" stroke="none" 
	d="
M720.360718,1023.015503 
	C722.991150,1020.397522 725.888000,1017.649231 728.997375,1015.167236 
	C731.859497,1012.882385 734.950134,1010.883850 738.230225,1008.388611 
	C738.520386,1008.018005 739.002441,1007.997559 739.354126,1007.964722 
	C750.343384,1001.359497 760.986511,994.796143 771.617065,988.212463 
	C784.339294,980.333252 797.029114,972.401489 809.790405,964.586121 
	C811.673096,963.433228 813.872009,962.796509 815.968262,961.966309 
	C816.011902,962.011719 816.098694,962.102783 816.098694,962.102783 
	C811.304626,965.564331 806.661438,969.261963 801.686951,972.441162 
	C788.840393,980.651489 775.849792,988.636475 762.912415,996.704712 
	C748.850647,1005.474182 734.784119,1014.236023 720.360718,1023.015503 
z"/>
<path fill="#AD4347" opacity="1.000000" stroke="none" 
	d="
M839.266113,947.223999 
	C834.999512,950.443237 830.724976,953.717285 826.247803,956.685669 
	C823.243103,958.677734 819.951294,960.236633 816.443359,962.046143 
	C816.098694,962.102783 816.011902,962.011719 816.030273,961.626099 
	C823.695862,956.490356 831.343079,951.740295 838.990234,946.990234 
	C838.990234,946.990234 839.171997,947.148682 839.266113,947.223999 
z"/>
<path fill="#E13136" opacity="1.000000" stroke="none" 
	d="
M739.002441,1007.997559 
	C739.002441,1007.997559 738.520386,1008.018005 738.279907,1008.030884 
	C730.762695,1012.182739 723.481995,1016.314697 716.212708,1020.466675 
	C714.799866,1021.273560 713.431458,1022.158020 711.889526,1023.100281 
	C707.527405,1018.959961 709.972351,1014.060547 710.656860,1010.245178 
	C713.546875,994.137268 717.661316,978.251953 720.692383,962.165527 
	C723.536682,947.069519 725.187561,931.746643 728.105896,916.667236 
	C730.326599,905.192139 733.951233,893.995667 736.488708,882.572449 
	C738.094971,875.341858 738.660461,867.886536 740.031677,860.595825 
	C742.406372,847.969543 745.110413,835.405518 747.548401,822.790710 
	C749.136169,814.575378 750.404114,806.298340 751.980042,798.080627 
	C755.144592,781.579895 757.609192,764.884644 761.918457,748.683472 
	C765.162659,736.486206 767.704712,723.952271 773.590576,712.452515 
	C776.558594,706.653564 777.864197,700.003662 779.949707,693.364563 
	C779.977966,692.990601 779.996704,692.994080 780.300354,692.851685 
	C786.495422,685.876770 792.677246,679.269104 798.194275,672.146484 
	C803.424927,665.393616 809.279541,659.473206 816.515991,654.978943 
	C825.254089,649.552002 833.934570,644.007935 842.904297,638.986694 
	C849.034607,635.554993 855.616943,632.930603 861.997131,629.945251 
	C861.997131,629.945251 862.495972,629.933350 862.982666,630.226318 
	C872.478455,629.678772 881.486328,628.121826 890.496765,628.107056 
	C994.570862,627.936523 1098.645386,628.000061 1202.719727,628.000366 
	C1253.202026,628.000549 1303.684448,627.998535 1354.166748,627.997803 
	C1355.499634,627.997803 1356.836670,627.933472 1358.164429,628.016663 
	C1361.946167,628.253601 1363.669189,630.056702 1362.520020,633.944336 
	C1360.793457,639.785461 1358.749756,645.557617 1357.456787,651.493164 
	C1356.620605,655.331604 1357.272339,659.480286 1356.564941,663.363831 
	C1355.459229,669.435303 1353.257690,675.331665 1352.440430,681.425537 
	C1351.150879,691.041931 1350.655640,700.799744 1345.368652,709.327148 
	C1344.016724,711.507690 1340.894043,713.009460 1340.401489,715.226624 
	C1338.814941,722.368835 1334.663452,727.077881 1329.008911,731.395142 
	C1323.211792,735.821228 1318.765747,741.858765 1311.741089,744.922607 
	C1304.816284,747.942993 1298.528687,752.890503 1291.375366,754.825012 
	C1275.666016,759.073303 1259.332520,757.878052 1243.213135,757.904114 
	C1233.335693,757.920105 1223.459229,757.160950 1213.578735,757.039612 
	C1200.495361,756.878906 1187.406982,756.884521 1174.323608,757.044556 
	C1165.991699,757.146423 1157.665039,757.902954 1149.335205,757.918823 
	C1140.377441,757.935913 1131.417847,757.181152 1122.460571,757.212952 
	C1109.920044,757.257507 1097.382202,757.844849 1084.840942,757.967407 
	C1070.689331,758.105774 1056.535278,757.979919 1042.382202,757.980286 
	C1023.251831,757.980713 1004.121399,758.000366 984.991028,757.994385 
	C977.796448,757.992126 970.533447,757.318787 963.427795,758.099670 
	C957.190979,758.784912 950.964050,760.626282 945.052124,762.818298 
	C941.254395,764.226379 938.034424,767.193542 934.556580,769.463501 
	C924.220398,776.209534 917.275391,785.660400 913.894653,797.363708 
	C911.473450,805.745605 910.492432,814.533142 908.392761,823.021912 
	C907.055054,828.430054 904.413086,833.520813 903.137268,838.937866 
	C901.489441,845.934448 900.545044,853.102722 899.436523,860.218689 
	C897.887390,870.163208 896.612305,880.152283 894.937500,890.074585 
	C893.892639,896.265076 892.847168,902.550842 890.775391,908.432251 
	C889.741516,911.367126 886.788879,914.085022 884.035522,915.869446 
	C875.623962,921.320923 866.888428,926.272583 858.278076,931.417297 
	C853.212646,934.443848 848.117554,937.422668 843.105347,940.534912 
	C842.234680,941.075562 841.710510,942.174072 841.026245,943.014893 
	C841.026184,943.014832 841.002441,943.002441 840.619629,943.002991 
	C839.123291,943.242249 837.829224,943.194824 836.924927,943.765259 
	C830.102783,948.068665 823.342773,952.471436 816.592957,956.888306 
	C812.130615,959.808411 807.785889,962.913757 803.260437,965.730469 
	C799.558899,968.034302 795.521545,969.812744 791.893250,972.216797 
	C785.424011,976.502991 779.245850,981.230896 772.746521,985.468201 
	C770.351196,987.030029 767.230774,987.444702 764.723328,988.876892 
	C759.448669,991.889343 754.155823,994.948303 749.262939,998.525146 
	C745.529602,1001.254333 742.400391,1004.809692 739.002441,1007.997559 
z"/>
<path fill="#C7383D" opacity="1.000000" stroke="none" 
	d="
M841.418152,943.015747 
	C841.710510,942.174072 842.234680,941.075562 843.105347,940.534912 
	C848.117554,937.422668 853.212646,934.443848 858.278076,931.417297 
	C866.888428,926.272583 875.623962,921.320923 884.035522,915.869446 
	C886.788879,914.085022 889.741516,911.367126 890.775391,908.432251 
	C892.847168,902.550842 893.892639,896.265076 894.937500,890.074585 
	C896.612305,880.152283 897.887390,870.163208 899.436523,860.218689 
	C900.545044,853.102722 901.489441,845.934448 903.137268,838.937866 
	C904.413086,833.520813 907.055054,828.430054 908.392761,823.021912 
	C910.492432,814.533142 911.473450,805.745605 913.894653,797.363708 
	C917.275391,785.660400 924.220398,776.209534 934.556580,769.463501 
	C938.034424,767.193542 941.254395,764.226379 945.052124,762.818298 
	C950.964050,760.626282 957.190979,758.784912 963.427795,758.099670 
	C970.533447,757.318787 977.796448,757.992126 984.991028,757.994385 
	C1004.121399,758.000366 1023.251831,757.980713 1042.382202,757.980286 
	C1056.535278,757.979919 1070.689331,758.105774 1084.840942,757.967407 
	C1097.382202,757.844849 1109.920044,757.257507 1122.460571,757.212952 
	C1131.417847,757.181152 1140.377441,757.935913 1149.335205,757.918823 
	C1157.665039,757.902954 1165.991699,757.146423 1174.323608,757.044556 
	C1187.406982,756.884521 1200.495361,756.878906 1213.578735,757.039612 
	C1223.459229,757.160950 1233.335693,757.920105 1243.213135,757.904114 
	C1259.332520,757.878052 1275.666016,759.073303 1291.375366,754.825012 
	C1298.528687,752.890503 1304.816284,747.942993 1311.741089,744.922607 
	C1318.765747,741.858765 1323.211792,735.821228 1329.008911,731.395142 
	C1334.663452,727.077881 1338.814941,722.368835 1340.401489,715.226624 
	C1340.894043,713.009460 1344.016724,711.507690 1345.368652,709.327148 
	C1350.655640,700.799744 1351.150879,691.041931 1352.440430,681.425537 
	C1353.257690,675.331665 1355.459229,669.435303 1356.564941,663.363831 
	C1357.272339,659.480286 1356.620605,655.331604 1357.456787,651.493164 
	C1358.749756,645.557617 1360.793457,639.785461 1362.520020,633.944336 
	C1363.669189,630.056702 1361.946167,628.253601 1358.164429,628.016663 
	C1356.836670,627.933472 1355.499634,627.997803 1354.166748,627.997803 
	C1303.684448,627.998535 1253.202026,628.000549 1202.719727,628.000366 
	C1098.645386,628.000061 994.570862,627.936523 890.496765,628.107056 
	C881.486328,628.121826 872.478455,629.678772 863.232178,630.224731 
	C864.904297,629.276489 866.782227,628.179993 868.728149,628.042175 
	C880.128723,627.234802 891.538391,626.454224 902.958618,626.055603 
	C911.944336,625.742004 920.951843,626.116150 929.945801,625.961975 
	C941.651367,625.761414 953.351868,625.154297 965.056824,625.082581 
	C972.286377,625.038330 979.519897,625.944519 986.751831,625.948364 
	C1099.209961,626.008484 1211.668091,626.015442 1324.126221,625.948669 
	C1334.245728,625.942627 1344.363281,625.246338 1354.485229,625.083923 
	C1357.263428,625.039368 1360.607422,624.965576 1362.670898,626.387085 
	C1364.450073,627.612732 1365.979736,631.186951 1365.553711,633.307922 
	C1362.600586,648.013245 1359.023315,662.591736 1355.825073,677.250000 
	C1354.382812,683.859924 1353.234497,690.540527 1352.155884,697.221924 
	C1349.750854,712.120056 1342.022461,723.918030 1331.354492,734.197327 
	C1320.769287,744.396790 1308.625366,752.097229 1294.670044,756.451294 
	C1287.964722,758.543396 1280.717773,759.804810 1273.704468,759.856140 
	C1231.722290,760.163635 1189.736816,760.009949 1147.752441,760.009583 
	C1090.021973,760.009155 1032.291626,760.038330 974.561218,759.990295 
	C953.249817,759.972595 936.128113,768.157471 923.205872,785.247742 
	C916.686462,793.870056 914.584412,804.035645 912.150574,814.142456 
	C910.178467,822.331482 908.060242,830.489441 906.292542,838.722412 
	C903.723083,850.689209 901.243713,862.680725 899.039062,874.718994 
	C897.105164,885.278992 895.831970,895.962219 893.803711,906.501892 
	C892.913147,911.129150 891.105957,915.069397 886.109802,917.861389 
	C874.545837,924.323364 863.693481,932.045959 852.359131,938.939331 
	C849.188904,940.867493 845.344910,941.687927 841.418152,943.015747 
z"/>
<path fill="#C7383D" opacity="1.000000" stroke="none" 
	d="
M739.354126,1007.964722 
	C742.400391,1004.809692 745.529602,1001.254333 749.262939,998.525146 
	C754.155823,994.948303 759.448669,991.889343 764.723328,988.876892 
	C767.230774,987.444702 770.351196,987.030029 772.746521,985.468201 
	C779.245850,981.230896 785.424011,976.502991 791.893250,972.216797 
	C795.521545,969.812744 799.558899,968.034302 803.260437,965.730469 
	C807.785889,962.913757 812.130615,959.808411 816.592957,956.888306 
	C823.342773,952.471436 830.102783,948.068665 836.924927,943.765259 
	C837.829224,943.194824 839.123291,943.242249 840.625000,943.015259 
	C840.372498,944.130188 839.731934,945.233521 839.040771,946.663574 
	C831.343079,951.740295 823.695862,956.490356 815.986694,961.580688 
	C813.872009,962.796509 811.673096,963.433228 809.790405,964.586121 
	C797.029114,972.401489 784.339294,980.333252 771.617065,988.212463 
	C760.986511,994.796143 750.343384,1001.359497 739.354126,1007.964722 
z"/>
<path fill="#C7383D" opacity="1.000000" stroke="none" 
	d="
M861.746948,629.677490 
	C855.616943,632.930603 849.034607,635.554993 842.904297,638.986694 
	C833.934570,644.007935 825.254089,649.552002 816.515991,654.978943 
	C809.279541,659.473206 803.424927,665.393616 798.194275,672.146484 
	C792.677246,679.269104 786.495422,685.876770 780.297729,692.844849 
	C782.790649,688.026062 784.934265,682.521240 788.531799,678.237244 
	C795.108215,670.405701 802.173950,662.886169 809.756714,656.034485 
	C814.568176,651.686951 820.472961,648.387207 826.257629,645.314453 
	C836.736267,639.748108 847.476013,634.670471 858.158997,629.496704 
	C859.071594,629.054749 860.374939,629.419617 861.746948,629.677490 
z"/>
<path fill="#DF3335" opacity="1.000000" stroke="none" 
	d="
M789.532288,1182.626953 
	C801.869629,1177.016235 813.899292,1171.655396 825.833862,1166.090698 
	C828.948792,1164.638306 831.715759,1162.455688 834.749451,1160.804932 
	C835.871826,1160.194214 837.744629,1159.504639 838.478577,1160.009399 
	C839.384521,1160.632446 840.003540,1162.551147 839.808167,1163.758057 
	C838.276978,1173.218628 836.824097,1182.709717 834.755432,1192.060669 
	C832.301392,1203.153931 828.852112,1214.034180 826.583130,1225.159302 
	C824.307129,1236.319214 823.277405,1247.729858 821.113037,1258.916748 
	C818.443420,1272.715576 814.925720,1286.349609 812.215698,1300.141479 
	C809.219482,1315.389771 806.934875,1330.777954 803.931824,1346.024658 
	C801.982788,1355.920654 799.742920,1365.803955 796.860718,1375.462402 
	C790.542358,1396.635864 777.331543,1411.858643 755.870361,1418.379028 
	C743.425781,1422.160034 730.511902,1423.479126 717.289062,1423.192993 
	C689.970337,1422.601807 662.629883,1423.018555 635.298401,1423.004150 
	C628.616638,1423.000610 627.043274,1420.970703 628.295959,1414.492798 
	C631.561035,1397.608521 634.534973,1380.664673 638.046265,1363.832520 
	C640.170654,1353.648804 643.318604,1343.681519 645.554077,1333.517334 
	C647.077820,1326.589355 647.674866,1319.463135 648.941284,1312.471680 
	C651.299500,1299.453003 653.912415,1286.480591 656.289307,1273.465088 
	C658.278625,1262.572510 659.809326,1251.586304 662.170654,1240.778564 
	C662.725586,1238.238647 665.371582,1235.316895 667.807190,1234.177490 
	C676.445496,1230.136475 685.398560,1226.765015 694.255249,1223.196533 
	C697.157288,1222.027222 700.198608,1221.188110 703.056152,1219.926147 
	C712.928650,1215.566284 722.675720,1210.916260 732.606567,1206.696777 
	C744.604065,1201.599243 756.773865,1196.908569 768.803345,1191.884277 
	C775.666199,1189.018066 782.398193,1185.838867 789.532288,1182.626953 
z"/>
<path fill="#AD4347" opacity="1.000000" stroke="none" 
	d="
M1164.959961,972.946045 
	C1154.696533,982.305115 1144.606445,991.313721 1131.751709,998.661987 
	C1131.333740,994.241211 1131.313110,990.812195 1130.645386,987.514221 
	C1127.757935,973.252380 1126.171631,958.645203 1119.557129,945.325745 
	C1119.085815,944.376709 1120.282349,941.722412 1121.405640,941.069702 
	C1122.982300,940.153564 1125.217041,940.144409 1127.171387,940.138733 
	C1149.669922,940.072693 1172.168701,940.064819 1194.667358,940.101929 
	C1196.324463,940.104675 1197.980957,940.574097 1199.637695,940.826660 
	C1199.919067,941.438660 1200.200439,942.050659 1200.481812,942.662659 
	C1188.745972,952.702332 1177.010132,962.742065 1164.959961,972.946045 
M1128.814697,942.987854 
	C1123.878662,943.572571 1122.950195,945.896790 1124.638550,951.363159 
	C1127.020996,959.077087 1129.119629,966.887024 1131.064453,974.724304 
	C1132.052246,978.704651 1132.075073,982.938965 1133.206177,986.864868 
	C1134.172485,990.218872 1136.504883,992.449829 1140.298584,989.812256 
	C1144.352661,986.993774 1148.578491,984.347229 1152.281738,981.113159 
	C1164.617676,970.340149 1176.781860,959.369263 1188.922729,948.375732 
	C1190.224609,947.196838 1190.942139,945.372559 1192.489136,942.986206 
	C1170.757202,942.986206 1150.253296,942.986206 1128.814697,942.987854 
z"/>
<path fill="#C7383D" opacity="1.000000" stroke="none" 
	d="
M1129.281982,942.987061 
	C1150.253296,942.986206 1170.757202,942.986206 1192.489136,942.986206 
	C1190.942139,945.372559 1190.224609,947.196838 1188.922729,948.375732 
	C1176.781860,959.369263 1164.617676,970.340149 1152.281738,981.113159 
	C1148.578491,984.347229 1144.352661,986.993774 1140.298584,989.812256 
	C1136.504883,992.449829 1134.172485,990.218872 1133.206177,986.864868 
	C1132.075073,982.938965 1132.052246,978.704651 1131.064453,974.724304 
	C1129.119629,966.887024 1127.020996,959.077087 1124.638550,951.363159 
	C1122.950195,945.896790 1123.878662,943.572571 1129.281982,942.987061 
M1130.493896,958.049500 
	C1131.680664,963.143250 1132.916382,968.226196 1134.037354,973.334351 
	C1134.815552,976.880859 1135.069214,980.587708 1136.235474,983.990479 
	C1137.288208,987.061890 1139.434937,987.956116 1142.328735,985.271484 
	C1144.887207,982.898071 1147.972534,981.100342 1150.598389,978.790527 
	C1156.151733,973.905701 1161.531860,968.824341 1167.030640,963.876648 
	C1171.910645,959.485657 1176.931885,955.248108 1181.709106,950.749756 
	C1182.724854,949.793457 1182.953979,948.001831 1183.545532,946.595032 
	C1181.856323,946.088379 1180.170898,945.182007 1178.476929,945.165344 
	C1175.691040,945.137939 1172.894775,945.973022 1170.111084,945.929688 
	C1165.224854,945.853516 1160.337646,945.053406 1155.463745,945.158813 
	C1146.479370,945.353027 1137.504395,945.983276 1127.600586,946.478088 
	C1128.372681,949.783813 1129.252686,953.551697 1130.493896,958.049500 
z"/>
<path fill="#E13136" opacity="1.000000" stroke="none" 
	d="
M1130.313232,957.684570 
	C1129.252686,953.551697 1128.372681,949.783813 1127.600586,946.478088 
	C1137.504395,945.983276 1146.479370,945.353027 1155.463745,945.158813 
	C1160.337646,945.053406 1165.224854,945.853516 1170.111084,945.929688 
	C1172.894775,945.973022 1175.691040,945.137939 1178.476929,945.165344 
	C1180.170898,945.182007 1181.856323,946.088379 1183.545532,946.595032 
	C1182.953979,948.001831 1182.724854,949.793457 1181.709106,950.749756 
	C1176.931885,955.248108 1171.910645,959.485657 1167.030640,963.876648 
	C1161.531860,968.824341 1156.151733,973.905701 1150.598389,978.790527 
	C1147.972534,981.100342 1144.887207,982.898071 1142.328735,985.271484 
	C1139.434937,987.956116 1137.288208,987.061890 1136.235474,983.990479 
	C1135.069214,980.587708 1134.815552,976.880859 1134.037354,973.334351 
	C1132.916382,968.226196 1131.680664,963.143250 1130.313232,957.684570 
z"/>
</svg>